<svg width="169" height="53" viewBox="0 0 169 53" fill="none" xmlns="http://www.w3.org/2000/svg">
<path d="M126.783 51.0586L9.71295 51.0586L30.3877 30.0892L47.7735 30.0892L61.937 15.9961V12.4218V8.84753L148.059 8.84753C157.45 10.8208 162.849 13.4822 165.905 18.6142C170.658 26.5956 169.893 37.8744 163.913 44.9517C160.62 48.8486 155.817 50.5108 148.059 51.0586L126.783 51.0586Z" fill="#88A8D6" fill-opacity="0.3"/>
<path d="M98.8779 28.9939C99.5319 29.1761 100.036 29.5085 100.39 29.9909C100.754 30.4734 100.936 31.0631 100.936 31.7599C100.936 32.7248 100.588 33.4807 99.8911 34.0275C99.2049 34.5743 98.2561 34.8477 97.0446 34.8477H92.8954C92.5845 34.8477 92.3379 34.7619 92.1557 34.5903C91.9841 34.4188 91.8984 34.1776 91.8984 33.8667V24.4909C91.8984 24.18 91.9841 23.9388 92.1557 23.7673C92.3379 23.5957 92.5845 23.5099 92.8954 23.5099H96.8837C98.0631 23.5099 98.9851 23.7726 99.6498 24.298C100.325 24.8126 100.663 25.5363 100.663 26.469C100.663 27.0694 100.502 27.5894 100.181 28.0289C99.8696 28.4685 99.4354 28.7902 98.8779 28.9939ZM93.9247 28.2863H96.546C97.9719 28.2863 98.6849 27.7556 98.6849 26.6942C98.6849 26.1581 98.508 25.7614 98.1542 25.5041C97.8004 25.2468 97.2643 25.1181 96.546 25.1181H93.9247V28.2863ZM96.8194 33.2395C97.5699 33.2395 98.1167 33.1055 98.4598 32.8374C98.8028 32.5694 98.9744 32.1513 98.9744 31.583C98.9744 31.0148 98.7975 30.5913 98.4437 30.3126C98.1006 30.0338 97.5592 29.8944 96.8194 29.8944H93.9247V33.2395H96.8194ZM111.946 33.545C112.075 33.738 112.139 33.9256 112.139 34.1079C112.139 34.3545 112.037 34.5582 111.834 34.719C111.641 34.8798 111.41 34.9602 111.142 34.9602C110.971 34.9602 110.804 34.9227 110.644 34.8477C110.494 34.7619 110.365 34.6386 110.258 34.4778L108.119 31.2292C107.904 30.8862 107.674 30.6449 107.427 30.5056C107.191 30.3662 106.881 30.2965 106.495 30.2965H104.919V33.8988C104.919 34.2205 104.827 34.4778 104.645 34.6708C104.463 34.853 104.216 34.9441 103.905 34.9441C103.594 34.9441 103.342 34.853 103.15 34.6708C102.967 34.4778 102.876 34.2205 102.876 33.8988V24.4909C102.876 24.18 102.962 23.9388 103.133 23.7673C103.316 23.5957 103.562 23.5099 103.873 23.5099H107.894C109.18 23.5099 110.156 23.7994 110.821 24.3784C111.496 24.9466 111.834 25.7721 111.834 26.855C111.834 27.7341 111.582 28.4578 111.078 29.026C110.585 29.5835 109.882 29.9427 108.971 30.1035C109.282 30.1786 109.555 30.3126 109.791 30.5056C110.027 30.6985 110.258 30.9666 110.483 31.3096L111.946 33.545ZM107.604 28.7044C108.387 28.7044 108.96 28.5596 109.325 28.2702C109.689 27.97 109.872 27.5143 109.872 26.9032C109.872 26.2814 109.689 25.8311 109.325 25.5523C108.96 25.2629 108.387 25.1181 107.604 25.1181H104.902V28.7044H107.604Z" fill="white"/>
<path d="M121.121 47.2266H2.66621L23.5856 26.311H41.1769M121.121 47.2266H142.649C150.499 46.6801 155.359 45.0223 158.691 41.1354C164.742 34.0763 165.515 22.8263 160.707 14.8654C157.615 9.74656 152.152 7.09201 142.649 5.12376H55.508V12.2541L45.1841 22.5081L27.8646 5.12376H9.11861L8.75286 5.46329M121.121 47.2266L116.84 51.4368H47.018M121.121 47.2266L129.269 39.2134M8.75286 5.46329L5.31506 8.65496L2.05493 5.46329L5.31506 2L8.75286 5.46329Z" stroke="url(#paint0_linear_120_7)" stroke-width="1.53161"/>
<defs>
<linearGradient id="paint0_linear_120_7" x1="-590.054" y1="33.781" x2="164.18" y2="24.4004" gradientUnits="userSpaceOnUse">
<stop stop-color="#65CFB4"/>
<stop offset="1" stop-color="#5CA7CC"/>
</linearGradient>
</defs>
</svg>
