<svg width="192" height="66" viewBox="0 0 192 66" fill="none" xmlns="http://www.w3.org/2000/svg">
<path d="M40.7482 9.4231L6.96375 43.4112L86.3612 43.5738L93.6528 51.5423H139.347L147.368 43.0859H168.675L191.522 20.1562L185.527 14.2205H89.1158L84.4168 9.4231H40.7482Z" fill="#88A8D6" fill-opacity="0.3"/>
<path d="M78.4788 34C78.0921 34 77.7854 33.8933 77.5588 33.68C77.3454 33.4667 77.2388 33.1667 77.2388 32.78V21.12C77.2388 20.7333 77.3454 20.4333 77.5588 20.22C77.7854 20.0067 78.0921 19.9 78.4788 19.9H85.6988C86.0854 19.9 86.3854 19.9867 86.5988 20.16C86.8121 20.3333 86.9188 20.58 86.9188 20.9C86.9188 21.2333 86.8121 21.4933 86.5988 21.68C86.3854 21.8533 86.0854 21.94 85.6988 21.94H79.7588V25.82H85.2988C85.6854 25.82 85.9854 25.9067 86.1988 26.08C86.4121 26.2533 86.5188 26.5067 86.5188 26.84C86.5188 27.16 86.4121 27.4067 86.1988 27.58C85.9854 27.7533 85.6854 27.84 85.2988 27.84H79.7588V31.96H85.6988C86.0854 31.96 86.3854 32.0533 86.5988 32.24C86.8121 32.4133 86.9188 32.6667 86.9188 33C86.9188 33.32 86.8121 33.5667 86.5988 33.74C86.3854 33.9133 86.0854 34 85.6988 34H78.4788ZM95.6161 24.74C95.7228 24.5 95.8628 24.32 96.0361 24.2C96.2228 24.08 96.4228 24.02 96.6361 24.02C96.9428 24.02 97.2161 24.1267 97.4561 24.34C97.7094 24.54 97.8361 24.7933 97.8361 25.1C97.8361 25.26 97.7961 25.42 97.7161 25.58L94.0161 33.32C93.8961 33.5733 93.7228 33.7667 93.4961 33.9C93.2828 34.0333 93.0428 34.1 92.7761 34.1C92.5228 34.1 92.2761 34.0333 92.0361 33.9C91.8094 33.7667 91.6361 33.5733 91.5161 33.32L87.7961 25.58C87.7294 25.4467 87.6961 25.2933 87.6961 25.12C87.6961 24.8133 87.8228 24.5533 88.0761 24.34C88.3428 24.1267 88.6428 24.02 88.9761 24.02C89.4561 24.02 89.8094 24.2533 90.0361 24.72L92.8361 30.9L95.6161 24.74ZM106.907 31.32C107.134 31.32 107.314 31.4067 107.447 31.58C107.594 31.7533 107.667 31.9867 107.667 32.28C107.667 32.6933 107.421 33.04 106.927 33.32C106.474 33.5733 105.961 33.78 105.387 33.94C104.814 34.0867 104.267 34.16 103.747 34.16C102.174 34.16 100.927 33.7067 100.007 32.8C99.0872 31.8933 98.6272 30.6533 98.6272 29.08C98.6272 28.08 98.8272 27.1933 99.2272 26.42C99.6272 25.6467 100.187 25.0467 100.907 24.62C101.641 24.1933 102.467 23.98 103.387 23.98C104.267 23.98 105.034 24.1733 105.687 24.56C106.341 24.9467 106.847 25.4933 107.207 26.2C107.567 26.9067 107.747 27.74 107.747 28.7C107.747 29.2733 107.494 29.56 106.987 29.56H101.087C101.167 30.48 101.427 31.16 101.867 31.6C102.307 32.0267 102.947 32.24 103.787 32.24C104.214 32.24 104.587 32.1867 104.907 32.08C105.241 31.9733 105.614 31.8267 106.027 31.64C106.427 31.4267 106.721 31.32 106.907 31.32ZM103.447 25.74C102.767 25.74 102.221 25.9533 101.807 26.38C101.407 26.8067 101.167 27.42 101.087 28.22H105.607C105.581 27.4067 105.381 26.7933 105.007 26.38C104.634 25.9533 104.114 25.74 103.447 25.74ZM115.472 23.98C116.646 23.98 117.519 24.3133 118.092 24.98C118.666 25.6467 118.952 26.6533 118.952 28V32.92C118.952 33.2933 118.839 33.5867 118.612 33.8C118.399 34.0133 118.099 34.12 117.712 34.12C117.326 34.12 117.019 34.0133 116.792 33.8C116.566 33.5867 116.452 33.2933 116.452 32.92V28.14C116.452 27.38 116.306 26.8267 116.012 26.48C115.732 26.1333 115.286 25.96 114.672 25.96C113.952 25.96 113.372 26.1867 112.932 26.64C112.506 27.0933 112.292 27.7 112.292 28.46V32.92C112.292 33.2933 112.179 33.5867 111.952 33.8C111.726 34.0133 111.419 34.12 111.032 34.12C110.646 34.12 110.339 34.0133 110.112 33.8C109.899 33.5867 109.792 33.2933 109.792 32.92V25.18C109.792 24.8333 109.906 24.5533 110.132 24.34C110.359 24.1267 110.666 24.02 111.052 24.02C111.399 24.02 111.679 24.1267 111.892 24.34C112.119 24.54 112.232 24.8067 112.232 25.14V25.68C112.566 25.1333 113.012 24.7133 113.572 24.42C114.132 24.1267 114.766 23.98 115.472 23.98ZM126.571 32.26C127.238 32.3 127.571 32.6 127.571 33.16C127.571 33.48 127.438 33.7267 127.171 33.9C126.918 34.06 126.551 34.1267 126.071 34.1L125.531 34.06C123.291 33.9 122.171 32.7 122.171 30.46V26.1H121.171C120.811 26.1 120.531 26.02 120.331 25.86C120.145 25.7 120.051 25.4667 120.051 25.16C120.051 24.8533 120.145 24.62 120.331 24.46C120.531 24.3 120.811 24.22 121.171 24.22H122.171V22.38C122.171 22.02 122.285 21.7333 122.511 21.52C122.738 21.3067 123.045 21.2 123.431 21.2C123.805 21.2 124.105 21.3067 124.331 21.52C124.558 21.7333 124.671 22.02 124.671 22.38V24.22H126.371C126.731 24.22 127.005 24.3 127.191 24.46C127.391 24.62 127.491 24.8533 127.491 25.16C127.491 25.4667 127.391 25.7 127.191 25.86C127.005 26.02 126.731 26.1 126.371 26.1H124.671V30.64C124.671 31.6267 125.125 32.1533 126.031 32.22L126.571 32.26ZM132.414 34.16C130.961 34.16 129.788 33.8733 128.894 33.3C128.468 33.0467 128.254 32.6867 128.254 32.22C128.254 31.9533 128.328 31.74 128.474 31.58C128.621 31.4067 128.801 31.32 129.014 31.32C129.241 31.32 129.554 31.4267 129.954 31.64C130.381 31.84 130.768 31.9933 131.114 32.1C131.474 32.2067 131.928 32.26 132.474 32.26C133.034 32.26 133.468 32.1667 133.774 31.98C134.094 31.7933 134.254 31.5333 134.254 31.2C134.254 30.9733 134.188 30.7933 134.054 30.66C133.934 30.5267 133.708 30.4067 133.374 30.3C133.054 30.18 132.561 30.0467 131.894 29.9C130.708 29.66 129.854 29.32 129.334 28.88C128.828 28.44 128.574 27.8333 128.574 27.06C128.574 26.4733 128.748 25.9467 129.094 25.48C129.441 25 129.914 24.6333 130.514 24.38C131.128 24.1133 131.821 23.98 132.594 23.98C133.154 23.98 133.694 24.0533 134.214 24.2C134.734 24.3333 135.201 24.5333 135.614 24.8C136.041 25.0667 136.254 25.42 136.254 25.86C136.254 26.1267 136.181 26.3533 136.034 26.54C135.888 26.7133 135.708 26.8 135.494 26.8C135.348 26.8 135.201 26.7733 135.054 26.72C134.921 26.6533 134.748 26.56 134.534 26.44C134.148 26.24 133.814 26.0933 133.534 26C133.254 25.8933 132.908 25.84 132.494 25.84C132.001 25.84 131.608 25.94 131.314 26.14C131.034 26.34 130.894 26.6133 130.894 26.96C130.894 27.2933 131.041 27.5467 131.334 27.72C131.628 27.8933 132.194 28.0667 133.034 28.24C133.928 28.4267 134.628 28.64 135.134 28.88C135.641 29.12 136.001 29.42 136.214 29.78C136.441 30.14 136.554 30.6 136.554 31.16C136.554 32.0667 136.174 32.7933 135.414 33.34C134.668 33.8867 133.668 34.16 132.414 34.16Z" fill="white"/>
<path d="M22.4491 59.1778L42.5294 39.1691H81.0705L88.6006 46.803H134.429L142.607 38.5263H163.578L186.087 16.1069L180.662 10.5624H84.6331L79.2892 5.41958H36.2138L2.3689 39.0084H35.728M22.4491 59.1778V64.5617H16.8623V59.1778H22.4491ZM19.2104 15.6248L33.8657 1H65.5245M186.816 32.7406L172.565 46.803H152.323" stroke="url(#paint0_linear_120_3)" stroke-width="1.53161"/>
<defs>
<linearGradient id="paint0_linear_120_3" x1="-183.253" y1="32.7809" x2="570.982" y2="23.4003" gradientUnits="userSpaceOnUse">
<stop stop-color="#65CFB4"/>
<stop offset="1" stop-color="#5CA7CC"/>
</linearGradient>
</defs>
</svg>
