<svg width="166" height="52" viewBox="0 0 166 52" fill="none" xmlns="http://www.w3.org/2000/svg">
<path d="M48.0152 8.65723H165.648L144.874 29.581H127.404L113.173 43.6434V47.2099V50.7764H26.6364C17.1999 48.8074 11.7749 46.1518 8.7045 41.031C3.92935 33.067 4.69751 21.8127 10.7065 14.7509C14.0153 10.8624 18.8415 9.20385 26.6364 8.65723H48.0152Z" fill="#88A8D6" fill-opacity="0.3"/>
<path d="M57.6002 21.6477C57.9869 21.6477 58.2936 21.7677 58.5202 22.0077C58.7469 22.2343 58.8602 22.541 58.8602 22.9277V34.6677C58.8602 35.0543 58.7402 35.3677 58.5002 35.6077C58.2736 35.8477 57.9736 35.9677 57.6002 35.9677C57.2136 35.9677 56.9069 35.8477 56.6802 35.6077C56.4536 35.3677 56.3402 35.0543 56.3402 34.6677V29.7277H49.1202V34.6677C49.1202 35.0543 49.0002 35.3677 48.7602 35.6077C48.5336 35.8477 48.2269 35.9677 47.8402 35.9677C47.4669 35.9677 47.1602 35.8477 46.9202 35.6077C46.6936 35.3677 46.5802 35.0543 46.5802 34.6677V22.9277C46.5802 22.541 46.6936 22.2343 46.9202 22.0077C47.1469 21.7677 47.4536 21.6477 47.8402 21.6477C48.2269 21.6477 48.5336 21.7677 48.7602 22.0077C49.0002 22.2343 49.1202 22.541 49.1202 22.9277V27.6477H56.3402V22.9277C56.3402 22.541 56.4536 22.2343 56.6802 22.0077C56.9069 21.7677 57.2136 21.6477 57.6002 21.6477ZM66.1327 36.0077C65.1327 36.0077 64.2527 35.801 63.4927 35.3877C62.7461 34.9743 62.1661 34.381 61.7527 33.6077C61.3394 32.8343 61.1327 31.9343 61.1327 30.9077C61.1327 29.881 61.3394 28.9877 61.7527 28.2277C62.1661 27.4543 62.7461 26.861 63.4927 26.4477C64.2527 26.0343 65.1327 25.8277 66.1327 25.8277C67.1327 25.8277 68.0061 26.0343 68.7527 26.4477C69.5127 26.861 70.0927 27.4543 70.4927 28.2277C70.9061 28.9877 71.1127 29.881 71.1127 30.9077C71.1127 31.9343 70.9061 32.8343 70.4927 33.6077C70.0927 34.381 69.5127 34.9743 68.7527 35.3877C68.0061 35.801 67.1327 36.0077 66.1327 36.0077ZM66.1127 34.0677C66.9261 34.0677 67.5461 33.801 67.9727 33.2677C68.3994 32.7343 68.6127 31.9477 68.6127 30.9077C68.6127 29.881 68.3994 29.101 67.9727 28.5677C67.5461 28.021 66.9327 27.7477 66.1327 27.7477C65.3327 27.7477 64.7127 28.021 64.2727 28.5677C63.8461 29.101 63.6327 29.881 63.6327 30.9077C63.6327 31.9477 63.8461 32.7343 64.2727 33.2677C64.6994 33.801 65.3127 34.0677 66.1127 34.0677ZM84.7966 25.8277C85.8633 25.8277 86.6766 26.1477 87.2366 26.7877C87.81 27.4143 88.0966 28.4343 88.0966 29.8477V34.7677C88.0966 35.1543 87.9766 35.4543 87.7366 35.6677C87.51 35.8677 87.21 35.9677 86.8366 35.9677C86.4766 35.9677 86.1766 35.8677 85.9366 35.6677C85.71 35.4543 85.5966 35.1543 85.5966 34.7677V29.8477C85.5966 29.1143 85.4633 28.5943 85.1966 28.2877C84.9433 27.9677 84.55 27.8077 84.0166 27.8077C83.3633 27.8077 82.8433 28.0343 82.4566 28.4877C82.07 28.9277 81.8766 29.5343 81.8766 30.3077V34.7677C81.8766 35.1543 81.7566 35.4543 81.5166 35.6677C81.29 35.8677 80.9966 35.9677 80.6366 35.9677C80.2766 35.9677 79.9766 35.8677 79.7366 35.6677C79.4966 35.4543 79.3766 35.1543 79.3766 34.7677V29.8477C79.3766 29.1143 79.2433 28.5943 78.9766 28.2877C78.7233 27.9677 78.33 27.8077 77.7966 27.8077C77.1433 27.8077 76.6233 28.0343 76.2366 28.4877C75.8633 28.9277 75.6766 29.5343 75.6766 30.3077V34.7677C75.6766 35.1543 75.5566 35.4543 75.3166 35.6677C75.0766 35.8677 74.7766 35.9677 74.4166 35.9677C74.0566 35.9677 73.7566 35.8677 73.5166 35.6677C73.29 35.4543 73.1766 35.1543 73.1766 34.7677V27.0277C73.1766 26.6543 73.2966 26.3677 73.5366 26.1677C73.7766 25.9677 74.0766 25.8677 74.4366 25.8677C74.7833 25.8677 75.0633 25.9677 75.2766 26.1677C75.5033 26.3543 75.6166 26.6277 75.6166 26.9877V27.4677C75.9233 26.9343 76.33 26.5277 76.8366 26.2477C77.3566 25.9677 77.95 25.8277 78.6166 25.8277C80.0833 25.8277 81.0633 26.441 81.5566 27.6677C81.85 27.1077 82.2833 26.661 82.8566 26.3277C83.43 25.9943 84.0766 25.8277 84.7966 25.8277ZM98.3776 33.1677C98.6043 33.1677 98.7843 33.2543 98.9176 33.4277C99.0643 33.601 99.1376 33.8343 99.1376 34.1277C99.1376 34.541 98.8909 34.8877 98.3976 35.1677C97.9443 35.421 97.4309 35.6277 96.8576 35.7877C96.2843 35.9343 95.7376 36.0077 95.2176 36.0077C93.6443 36.0077 92.3976 35.5543 91.4776 34.6477C90.5576 33.741 90.0976 32.501 90.0976 30.9277C90.0976 29.9277 90.2976 29.041 90.6976 28.2677C91.0976 27.4943 91.6576 26.8943 92.3776 26.4677C93.1109 26.041 93.9376 25.8277 94.8576 25.8277C95.7376 25.8277 96.5043 26.021 97.1576 26.4077C97.8109 26.7943 98.3176 27.341 98.6776 28.0477C99.0376 28.7543 99.2176 29.5877 99.2176 30.5477C99.2176 31.121 98.9643 31.4077 98.4576 31.4077H92.5576C92.6376 32.3277 92.8976 33.0077 93.3376 33.4477C93.7776 33.8743 94.4176 34.0877 95.2576 34.0877C95.6843 34.0877 96.0576 34.0343 96.3776 33.9277C96.7109 33.821 97.0843 33.6743 97.4976 33.4877C97.8976 33.2743 98.1909 33.1677 98.3776 33.1677ZM94.9176 27.5877C94.2376 27.5877 93.6909 27.801 93.2776 28.2277C92.8776 28.6543 92.6376 29.2677 92.5576 30.0677H97.0776C97.0509 29.2543 96.8509 28.641 96.4776 28.2277C96.1043 27.801 95.5843 27.5877 94.9176 27.5877Z" fill="white"/>
<path d="M43.717 5.21028H162.172L141.252 26.1259H123.661M43.717 5.21028H22.1886C14.3392 5.75669 9.47939 7.4145 6.14748 11.3015C0.0964375 18.3606 -0.677129 29.6106 4.13141 37.5714C7.2233 42.6903 12.6862 45.3448 22.1886 47.3131H109.33V40.1828L119.654 29.9287L136.974 47.3131H155.719L156.085 46.9735M43.717 5.21028L47.9982 1H117.82M43.717 5.21028L35.5689 13.2234M156.085 46.9735L159.523 43.7819L162.783 46.9735L159.523 50.4368L156.085 46.9735Z" stroke="url(#paint0_linear_120_4)" stroke-width="1.53161"/>
<defs>
<linearGradient id="paint0_linear_120_4" x1="-7.00021" y1="25.123" x2="747.235" y2="15.7424" gradientUnits="userSpaceOnUse">
<stop stop-color="#65CFB4"/>
<stop offset="1" stop-color="#5CA7CC"/>
</linearGradient>
</defs>
</svg>
