<svg width="194" height="66" viewBox="0 0 194 66" fill="none" xmlns="http://www.w3.org/2000/svg">
<path d="M42.6228 9.42285L8.83838 43.4109L88.2358 43.5735L95.5274 51.542H141.221L149.242 43.0857H170.55L193.397 20.1559L187.402 14.2202H90.9904L86.2914 9.42285H42.6228Z" fill="#88A8D6" fill-opacity="0.3"/>
<path d="M100.421 26.72C101.234 26.9467 101.861 27.36 102.301 27.96C102.754 28.56 102.981 29.2933 102.981 30.16C102.981 31.36 102.547 32.3 101.681 32.98C100.827 33.66 99.6474 34 98.1407 34H92.9807C92.594 34 92.2874 33.8933 92.0607 33.68C91.8474 33.4667 91.7407 33.1667 91.7407 32.78V21.12C91.7407 20.7333 91.8474 20.4333 92.0607 20.22C92.2874 20.0067 92.594 19.9 92.9807 19.9H97.9407C99.4074 19.9 100.554 20.2267 101.381 20.88C102.221 21.52 102.641 22.42 102.641 23.58C102.641 24.3267 102.441 24.9733 102.041 25.52C101.654 26.0667 101.114 26.4667 100.421 26.72ZM94.2607 25.84H97.5207C99.294 25.84 100.181 25.18 100.181 23.86C100.181 23.1933 99.9607 22.7 99.5207 22.38C99.0807 22.06 98.414 21.9 97.5207 21.9H94.2607V25.84ZM97.8607 32C98.794 32 99.474 31.8333 99.9007 31.5C100.327 31.1667 100.541 30.6467 100.541 29.94C100.541 29.2333 100.321 28.7067 99.8807 28.36C99.454 28.0133 98.7807 27.84 97.8607 27.84H94.2607V32H97.8607ZM116.673 32.38C116.833 32.62 116.913 32.8533 116.913 33.08C116.913 33.3867 116.786 33.64 116.533 33.84C116.293 34.04 116.006 34.14 115.673 34.14C115.46 34.14 115.253 34.0933 115.053 34C114.866 33.8933 114.706 33.74 114.573 33.54L111.913 29.5C111.646 29.0733 111.36 28.7733 111.053 28.6C110.76 28.4267 110.373 28.34 109.893 28.34H107.933V32.82C107.933 33.22 107.82 33.54 107.593 33.78C107.366 34.0067 107.06 34.12 106.673 34.12C106.286 34.12 105.973 34.0067 105.733 33.78C105.506 33.54 105.393 33.22 105.393 32.82V21.12C105.393 20.7333 105.5 20.4333 105.713 20.22C105.94 20.0067 106.246 19.9 106.633 19.9H111.633C113.233 19.9 114.446 20.26 115.273 20.98C116.113 21.6867 116.533 22.7133 116.533 24.06C116.533 25.1533 116.22 26.0533 115.593 26.76C114.98 27.4533 114.106 27.9 112.973 28.1C113.36 28.1933 113.7 28.36 113.993 28.6C114.286 28.84 114.573 29.1733 114.853 29.6L116.673 32.38ZM111.273 26.36C112.246 26.36 112.96 26.18 113.413 25.82C113.866 25.4467 114.093 24.88 114.093 24.12C114.093 23.3467 113.866 22.7867 113.413 22.44C112.96 22.08 112.246 21.9 111.273 21.9H107.913V26.36H111.273Z" fill="white"/>
<path d="M22.7921 59.1778L42.8724 39.1691H81.4135L88.9436 46.803H134.772L142.95 38.5263H163.921L186.43 16.1069L181.005 10.5624H84.9761L79.6321 5.41958H36.5568L2.71191 39.0084H36.071M22.7921 59.1778V64.5617H17.2053V59.1778H22.7921ZM19.5534 15.6248L34.2087 1H65.8675M187.159 32.7406L172.908 46.803H152.666" stroke="url(#paint0_linear_120_5)" stroke-width="1.53161"/>
<defs>
<linearGradient id="paint0_linear_120_5" x1="-390.853" y1="32.781" x2="363.382" y2="23.4004" gradientUnits="userSpaceOnUse">
<stop stop-color="#65CFB4"/>
<stop offset="1" stop-color="#5CA7CC"/>
</linearGradient>
</defs>
</svg>
