<svg width="192" height="66" viewBox="0 0 192 66" fill="none" xmlns="http://www.w3.org/2000/svg">
<path d="M40.7482 9.4231L6.96375 43.4112L86.3612 43.5738L93.6528 51.5423H139.347L147.368 43.0859H168.675L191.522 20.1562L185.527 14.2205H89.1158L84.4168 9.4231H40.7482Z" fill="#88A8D6" fill-opacity="0.3"/>
<path d="M85.3059 32.38C85.4659 32.62 85.5459 32.8533 85.5459 33.08C85.5459 33.3867 85.4192 33.64 85.1659 33.84C84.9259 34.04 84.6392 34.14 84.3059 34.14C84.0925 34.14 83.8859 34.0933 83.6859 34C83.4992 33.8933 83.3392 33.74 83.2059 33.54L80.5459 29.5C80.2792 29.0733 79.9925 28.7733 79.6859 28.6C79.3925 28.4267 79.0059 28.34 78.5259 28.34H76.5659V32.82C76.5659 33.22 76.4525 33.54 76.2259 33.78C75.9992 34.0067 75.6925 34.12 75.3059 34.12C74.9192 34.12 74.6059 34.0067 74.3659 33.78C74.1392 33.54 74.0259 33.22 74.0259 32.82V21.12C74.0259 20.7333 74.1325 20.4333 74.3459 20.22C74.5725 20.0067 74.8792 19.9 75.2659 19.9H80.2659C81.8659 19.9 83.0792 20.26 83.9059 20.98C84.7459 21.6867 85.1659 22.7133 85.1659 24.06C85.1659 25.1533 84.8525 26.0533 84.2259 26.76C83.6125 27.4533 82.7392 27.9 81.6059 28.1C81.9925 28.1933 82.3325 28.36 82.6259 28.6C82.9192 28.84 83.2059 29.1733 83.4859 29.6L85.3059 32.38ZM79.9059 26.36C80.8792 26.36 81.5925 26.18 82.0459 25.82C82.4992 25.4467 82.7259 24.88 82.7259 24.12C82.7259 23.3467 82.4992 22.7867 82.0459 22.44C81.5925 22.08 80.8792 21.9 79.9059 21.9H76.5459V26.36H79.9059ZM95.4521 31.32C95.6788 31.32 95.8588 31.4067 95.9921 31.58C96.1388 31.7533 96.2121 31.9867 96.2121 32.28C96.2121 32.6933 95.9654 33.04 95.4721 33.32C95.0188 33.5733 94.5054 33.78 93.9321 33.94C93.3588 34.0867 92.8121 34.16 92.2921 34.16C90.7188 34.16 89.4721 33.7067 88.5521 32.8C87.6321 31.8933 87.1721 30.6533 87.1721 29.08C87.1721 28.08 87.3721 27.1933 87.7721 26.42C88.1721 25.6467 88.7321 25.0467 89.4521 24.62C90.1854 24.1933 91.0121 23.98 91.9321 23.98C92.8121 23.98 93.5788 24.1733 94.2321 24.56C94.8854 24.9467 95.3921 25.4933 95.7521 26.2C96.1121 26.9067 96.2921 27.74 96.2921 28.7C96.2921 29.2733 96.0388 29.56 95.5321 29.56H89.6321C89.7121 30.48 89.9721 31.16 90.4121 31.6C90.8521 32.0267 91.4921 32.24 92.3321 32.24C92.7588 32.24 93.1321 32.1867 93.4521 32.08C93.7854 31.9733 94.1588 31.8267 94.5721 31.64C94.9721 31.4267 95.2654 31.32 95.4521 31.32ZM91.9921 25.74C91.3121 25.74 90.7654 25.9533 90.3521 26.38C89.9521 26.8067 89.7121 27.42 89.6321 28.22H94.1521C94.1254 27.4067 93.9254 26.7933 93.5521 26.38C93.1788 25.9533 92.6588 25.74 91.9921 25.74ZM101.877 34.16C100.424 34.16 99.2504 33.8733 98.3571 33.3C97.9304 33.0467 97.7171 32.6867 97.7171 32.22C97.7171 31.9533 97.7904 31.74 97.9371 31.58C98.0838 31.4067 98.2638 31.32 98.4771 31.32C98.7038 31.32 99.0171 31.4267 99.4171 31.64C99.8438 31.84 100.23 31.9933 100.577 32.1C100.937 32.2067 101.39 32.26 101.937 32.26C102.497 32.26 102.93 32.1667 103.237 31.98C103.557 31.7933 103.717 31.5333 103.717 31.2C103.717 30.9733 103.65 30.7933 103.517 30.66C103.397 30.5267 103.17 30.4067 102.837 30.3C102.517 30.18 102.024 30.0467 101.357 29.9C100.17 29.66 99.3171 29.32 98.7971 28.88C98.2904 28.44 98.0371 27.8333 98.0371 27.06C98.0371 26.4733 98.2104 25.9467 98.5571 25.48C98.9038 25 99.3771 24.6333 99.9771 24.38C100.59 24.1133 101.284 23.98 102.057 23.98C102.617 23.98 103.157 24.0533 103.677 24.2C104.197 24.3333 104.664 24.5333 105.077 24.8C105.504 25.0667 105.717 25.42 105.717 25.86C105.717 26.1267 105.644 26.3533 105.497 26.54C105.35 26.7133 105.17 26.8 104.957 26.8C104.81 26.8 104.664 26.7733 104.517 26.72C104.384 26.6533 104.21 26.56 103.997 26.44C103.61 26.24 103.277 26.0933 102.997 26C102.717 25.8933 102.37 25.84 101.957 25.84C101.464 25.84 101.07 25.94 100.777 26.14C100.497 26.34 100.357 26.6133 100.357 26.96C100.357 27.2933 100.504 27.5467 100.797 27.72C101.09 27.8933 101.657 28.0667 102.497 28.24C103.39 28.4267 104.09 28.64 104.597 28.88C105.104 29.12 105.464 29.42 105.677 29.78C105.904 30.14 106.017 30.6 106.017 31.16C106.017 32.0667 105.637 32.7933 104.877 33.34C104.13 33.8867 103.13 34.16 101.877 34.16ZM115.764 24.02C116.151 24.02 116.457 24.1267 116.684 24.34C116.911 24.5533 117.024 24.84 117.024 25.2V32.96C117.024 33.3067 116.904 33.5867 116.664 33.8C116.437 34.0133 116.137 34.12 115.764 34.12C115.404 34.12 115.117 34.02 114.904 33.82C114.691 33.62 114.584 33.3467 114.584 33V32.5C114.277 33.0333 113.864 33.4467 113.344 33.74C112.824 34.02 112.237 34.16 111.584 34.16C109.184 34.16 107.984 32.8133 107.984 30.12V25.2C107.984 24.84 108.097 24.5533 108.324 24.34C108.551 24.1267 108.851 24.02 109.224 24.02C109.611 24.02 109.917 24.1267 110.144 24.34C110.371 24.5533 110.484 24.84 110.484 25.2V30.14C110.484 30.8333 110.624 31.3467 110.904 31.68C111.184 32.0133 111.624 32.18 112.224 32.18C112.917 32.18 113.471 31.9533 113.884 31.5C114.311 31.0333 114.524 30.42 114.524 29.66V25.2C114.524 24.84 114.637 24.5533 114.864 24.34C115.091 24.1267 115.391 24.02 115.764 24.02ZM120.866 34.12C120.506 34.12 120.206 34.02 119.966 33.82C119.74 33.6067 119.626 33.3067 119.626 32.92V20.98C119.626 20.5933 119.74 20.3 119.966 20.1C120.206 19.9 120.506 19.8 120.866 19.8C121.226 19.8 121.526 19.9 121.766 20.1C122.006 20.3 122.126 20.5933 122.126 20.98V32.92C122.126 33.3067 122.006 33.6067 121.766 33.82C121.526 34.02 121.226 34.12 120.866 34.12ZM129.784 32.26C130.451 32.3 130.784 32.6 130.784 33.16C130.784 33.48 130.651 33.7267 130.384 33.9C130.131 34.06 129.764 34.1267 129.284 34.1L128.744 34.06C126.504 33.9 125.384 32.7 125.384 30.46V26.1H124.384C124.024 26.1 123.744 26.02 123.544 25.86C123.358 25.7 123.264 25.4667 123.264 25.16C123.264 24.8533 123.358 24.62 123.544 24.46C123.744 24.3 124.024 24.22 124.384 24.22H125.384V22.38C125.384 22.02 125.498 21.7333 125.724 21.52C125.951 21.3067 126.258 21.2 126.644 21.2C127.018 21.2 127.318 21.3067 127.544 21.52C127.771 21.7333 127.884 22.02 127.884 22.38V24.22H129.584C129.944 24.22 130.218 24.3 130.404 24.46C130.604 24.62 130.704 24.8533 130.704 25.16C130.704 25.4667 130.604 25.7 130.404 25.86C130.218 26.02 129.944 26.1 129.584 26.1H127.884V30.64C127.884 31.6267 128.338 32.1533 129.244 32.22L129.784 32.26ZM135.627 34.16C134.174 34.16 133 33.8733 132.107 33.3C131.68 33.0467 131.467 32.6867 131.467 32.22C131.467 31.9533 131.54 31.74 131.687 31.58C131.834 31.4067 132.014 31.32 132.227 31.32C132.454 31.32 132.767 31.4267 133.167 31.64C133.594 31.84 133.98 31.9933 134.327 32.1C134.687 32.2067 135.14 32.26 135.687 32.26C136.247 32.26 136.68 32.1667 136.987 31.98C137.307 31.7933 137.467 31.5333 137.467 31.2C137.467 30.9733 137.4 30.7933 137.267 30.66C137.147 30.5267 136.92 30.4067 136.587 30.3C136.267 30.18 135.774 30.0467 135.107 29.9C133.92 29.66 133.067 29.32 132.547 28.88C132.04 28.44 131.787 27.8333 131.787 27.06C131.787 26.4733 131.96 25.9467 132.307 25.48C132.654 25 133.127 24.6333 133.727 24.38C134.34 24.1133 135.034 23.98 135.807 23.98C136.367 23.98 136.907 24.0533 137.427 24.2C137.947 24.3333 138.414 24.5333 138.827 24.8C139.254 25.0667 139.467 25.42 139.467 25.86C139.467 26.1267 139.394 26.3533 139.247 26.54C139.1 26.7133 138.92 26.8 138.707 26.8C138.56 26.8 138.414 26.7733 138.267 26.72C138.134 26.6533 137.96 26.56 137.747 26.44C137.36 26.24 137.027 26.0933 136.747 26C136.467 25.8933 136.12 25.84 135.707 25.84C135.214 25.84 134.82 25.94 134.527 26.14C134.247 26.34 134.107 26.6133 134.107 26.96C134.107 27.2933 134.254 27.5467 134.547 27.72C134.84 27.8933 135.407 28.0667 136.247 28.24C137.14 28.4267 137.84 28.64 138.347 28.88C138.854 29.12 139.214 29.42 139.427 29.78C139.654 30.14 139.767 30.6 139.767 31.16C139.767 32.0667 139.387 32.7933 138.627 33.34C137.88 33.8867 136.88 34.16 135.627 34.16Z" fill="white"/>
<path d="M22.4491 59.1778L42.5294 39.1691H81.0705L88.6006 46.803H134.429L142.607 38.5263H163.578L186.087 16.1069L180.662 10.5624H84.6331L79.2892 5.41958H36.2138L2.3689 39.0084H35.728M22.4491 59.1778V64.5617H16.8623V59.1778H22.4491ZM19.2104 15.6248L33.8657 1H65.5245M186.816 32.7406L172.565 46.803H152.323" stroke="url(#paint0_linear_120_3)" stroke-width="1.53161"/>
<defs>
<linearGradient id="paint0_linear_120_3" x1="-183.253" y1="32.7809" x2="570.982" y2="23.4003" gradientUnits="userSpaceOnUse">
<stop stop-color="#65CFB4"/>
<stop offset="1" stop-color="#5CA7CC"/>
</linearGradient>
</defs>
</svg>
