<svg width="194" height="66" viewBox="0 0 194 66" fill="none" xmlns="http://www.w3.org/2000/svg">
<path d="M42.6228 9.42285L8.83838 43.4109L88.2358 43.5735L95.5274 51.542H141.221L149.242 43.0857H170.55L193.397 20.1559L187.402 14.2202H90.9904L86.2914 9.42285H42.6228Z" fill="#88A8D6" fill-opacity="0.3"/>
<path d="M85.3451 34.1C84.9451 34.1 84.6251 33.9867 84.3851 33.76C84.1584 33.52 84.0451 33.2067 84.0451 32.82V22.02H80.4051C79.6051 22.02 79.2051 21.6667 79.2051 20.96C79.2051 20.2533 79.6051 19.9 80.4051 19.9H90.2651C91.0651 19.9 91.4651 20.2533 91.4651 20.96C91.4651 21.6667 91.0651 22.02 90.2651 22.02H86.6251V32.82C86.6251 33.2067 86.5051 33.52 86.2651 33.76C86.0384 33.9867 85.7317 34.1 85.3451 34.1ZM98.9482 31.32C99.1749 31.32 99.3549 31.4067 99.4882 31.58C99.6349 31.7533 99.7082 31.9867 99.7082 32.28C99.7082 32.6933 99.4615 33.04 98.9682 33.32C98.5149 33.5733 98.0015 33.78 97.4282 33.94C96.8549 34.0867 96.3082 34.16 95.7882 34.16C94.2149 34.16 92.9682 33.7067 92.0482 32.8C91.1282 31.8933 90.6682 30.6533 90.6682 29.08C90.6682 28.08 90.8682 27.1933 91.2682 26.42C91.6682 25.6467 92.2282 25.0467 92.9482 24.62C93.6815 24.1933 94.5082 23.98 95.4282 23.98C96.3082 23.98 97.0749 24.1733 97.7282 24.56C98.3815 24.9467 98.8882 25.4933 99.2482 26.2C99.6082 26.9067 99.7882 27.74 99.7882 28.7C99.7882 29.2733 99.5349 29.56 99.0282 29.56H93.1282C93.2082 30.48 93.4682 31.16 93.9082 31.6C94.3482 32.0267 94.9882 32.24 95.8282 32.24C96.2549 32.24 96.6282 32.1867 96.9482 32.08C97.2815 31.9733 97.6549 31.8267 98.0682 31.64C98.4682 31.4267 98.7615 31.32 98.9482 31.32ZM95.4882 25.74C94.8082 25.74 94.2615 25.9533 93.8482 26.38C93.4482 26.8067 93.2082 27.42 93.1282 28.22H97.6482C97.6215 27.4067 97.4215 26.7933 97.0482 26.38C96.6749 25.9533 96.1549 25.74 95.4882 25.74ZM106.073 23.98C107.433 23.98 108.44 24.32 109.093 25C109.76 25.6667 110.093 26.6867 110.093 28.06V32.94C110.093 33.3 109.987 33.5867 109.773 33.8C109.56 34 109.267 34.1 108.893 34.1C108.547 34.1 108.26 33.9933 108.033 33.78C107.82 33.5667 107.713 33.2867 107.713 32.94V32.5C107.487 33.02 107.127 33.4267 106.633 33.72C106.153 34.0133 105.593 34.16 104.953 34.16C104.3 34.16 103.707 34.0267 103.173 33.76C102.64 33.4933 102.22 33.1267 101.913 32.66C101.607 32.1933 101.453 31.6733 101.453 31.1C101.453 30.38 101.633 29.8133 101.993 29.4C102.367 28.9867 102.967 28.6867 103.793 28.5C104.62 28.3133 105.76 28.22 107.213 28.22H107.713V27.76C107.713 27.1067 107.573 26.6333 107.293 26.34C107.013 26.0333 106.56 25.88 105.933 25.88C105.547 25.88 105.153 25.94 104.753 26.06C104.353 26.1667 103.88 26.3267 103.333 26.54C102.987 26.7133 102.733 26.8 102.573 26.8C102.333 26.8 102.133 26.7133 101.973 26.54C101.827 26.3667 101.753 26.14 101.753 25.86C101.753 25.6333 101.807 25.44 101.913 25.28C102.033 25.1067 102.227 24.9467 102.493 24.8C102.96 24.5467 103.513 24.3467 104.153 24.2C104.807 24.0533 105.447 23.98 106.073 23.98ZM105.453 32.36C106.12 32.36 106.66 32.14 107.073 31.7C107.5 31.2467 107.713 30.6667 107.713 29.96V29.54H107.353C106.46 29.54 105.767 29.58 105.273 29.66C104.78 29.74 104.427 29.88 104.213 30.08C104 30.28 103.893 30.5533 103.893 30.9C103.893 31.3267 104.04 31.68 104.333 31.96C104.64 32.2267 105.013 32.36 105.453 32.36ZM124.254 23.98C125.321 23.98 126.134 24.3 126.694 24.94C127.267 25.5667 127.554 26.5867 127.554 28V32.92C127.554 33.3067 127.434 33.6067 127.194 33.82C126.967 34.02 126.667 34.12 126.294 34.12C125.934 34.12 125.634 34.02 125.394 33.82C125.167 33.6067 125.054 33.3067 125.054 32.92V28C125.054 27.2667 124.921 26.7467 124.654 26.44C124.401 26.12 124.007 25.96 123.474 25.96C122.821 25.96 122.301 26.1867 121.914 26.64C121.527 27.08 121.334 27.6867 121.334 28.46V32.92C121.334 33.3067 121.214 33.6067 120.974 33.82C120.747 34.02 120.454 34.12 120.094 34.12C119.734 34.12 119.434 34.02 119.194 33.82C118.954 33.6067 118.834 33.3067 118.834 32.92V28C118.834 27.2667 118.701 26.7467 118.434 26.44C118.181 26.12 117.787 25.96 117.254 25.96C116.601 25.96 116.081 26.1867 115.694 26.64C115.321 27.08 115.134 27.6867 115.134 28.46V32.92C115.134 33.3067 115.014 33.6067 114.774 33.82C114.534 34.02 114.234 34.12 113.874 34.12C113.514 34.12 113.214 34.02 112.974 33.82C112.747 33.6067 112.634 33.3067 112.634 32.92V25.18C112.634 24.8067 112.754 24.52 112.994 24.32C113.234 24.12 113.534 24.02 113.894 24.02C114.241 24.02 114.521 24.12 114.734 24.32C114.961 24.5067 115.074 24.78 115.074 25.14V25.62C115.381 25.0867 115.787 24.68 116.294 24.4C116.814 24.12 117.407 23.98 118.074 23.98C119.541 23.98 120.521 24.5933 121.014 25.82C121.307 25.26 121.741 24.8133 122.314 24.48C122.887 24.1467 123.534 23.98 124.254 23.98Z" fill="white"/>
<path d="M22.7921 59.1778L42.8724 39.1691H81.4135L88.9436 46.803H134.772L142.95 38.5263H163.921L186.43 16.1069L181.005 10.5624H84.9761L79.6321 5.41958H36.5568L2.71191 39.0084H36.071M22.7921 59.1778V64.5617H17.2053V59.1778H22.7921ZM19.5534 15.6248L34.2087 1H65.8675M187.159 32.7406L172.908 46.803H152.666" stroke="url(#paint0_linear_120_5)" stroke-width="1.53161"/>
<defs>
<linearGradient id="paint0_linear_120_5" x1="-390.853" y1="32.781" x2="363.382" y2="23.4004" gradientUnits="userSpaceOnUse">
<stop stop-color="#65CFB4"/>
<stop offset="1" stop-color="#5CA7CC"/>
</linearGradient>
</defs>
</svg>
